<?xml version="1.0" standalone="no"?>
<!DOCTYPE svg PUBLIC "-//W3C//DTD SVG 20010904//EN"
 "http://www.w3.org/TR/2001/REC-SVG-20010904/DTD/svg10.dtd">
<svg version="1.0" xmlns="http://www.w3.org/2000/svg"
 width="512.000000pt" height="512.000000pt" viewBox="0 0 512.000000 512.000000"
 preserveAspectRatio="xMidYMid meet">
<metadata>
Created by potrace 1.15, written by Peter Selinger 2001-2017
</metadata>
<g transform="translate(0.000000,512.000000) scale(0.100000,-0.100000)"
fill="#000000" stroke="none">
<path d="M2255 5108 c-105 -12 -298 -51 -409 -83 -994 -288 -1724 -1155 -1835
-2177 -14 -125 -14 -451 0 -576 128 -1180 1081 -2133 2261 -2261 125 -14 451
-14 576 0 1179 128 2133 1082 2261 2261 14 125 14 451 0 576 -128 1180 -1081
2133 -2261 2261 -115 13 -479 12 -593 -1z m1985 -1238 c45 -12 96 -64 107
-110 5 -19 7 -564 5 -1222 l-4 -1188 -22 -32 c-11 -18 -37 -41 -56 -52 -35
-21 -36 -21 -1714 -18 -1384 3 -1684 6 -1705 17 -42 21 -69 57 -80 105 -13 57
-15 2328 -1 2384 11 49 65 105 111 116 51 12 3316 12 3359 0z"/>
<path d="M933 3760 c-41 -25 -53 -48 -53 -104 0 -115 139 -164 215 -75 30 36
35 111 9 147 -36 52 -115 67 -171 32z"/>
<path d="M1298 3764 c-60 -32 -78 -129 -33 -183 53 -62 137 -62 190 0 45 55
27 152 -35 184 -36 19 -87 19 -122 -1z"/>
<path d="M1659 3765 c-63 -34 -80 -128 -34 -184 53 -62 137 -62 190 0 30 36
34 106 9 145 -34 50 -110 69 -165 39z"/>
<path d="M2651 2983 c-28 -94 -215 -723 -320 -1079 -28 -94 -51 -177 -51 -183
0 -8 28 -11 97 -9 l97 3 198 670 c108 369 198 676 198 683 0 9 -25 12 -95 12
l-94 0 -30 -97z"/>
<path d="M1685 2660 l-450 -209 -3 -84 -3 -83 283 -132 c156 -72 361 -167 456
-211 l173 -80 -3 105 -3 106 -338 147 -337 148 340 149 340 148 0 103 c0 57
-1 103 -2 103 -2 0 -205 -95 -453 -210z"/>
<path d="M2980 2768 l0 -103 338 -144 c185 -79 340 -147 344 -150 4 -4 -144
-71 -330 -150 -185 -79 -341 -147 -345 -151 -4 -4 -6 -52 -5 -107 l3 -100 450
206 450 207 3 89 2 90 -87 40 c-49 21 -248 113 -443 203 -195 90 -361 166
-367 169 -10 4 -13 -20 -13 -99z"/>
</g>
</svg>
